<svg version="1" xmlns="http://www.w3.org/2000/svg" width="933.333" height="933.333" viewBox="0 0 700.000000 700.000000"><path d="M343.9 17.4c-4.6 2.9-11.4 7.3-15.1 9.9-3.8 2.6-9.6 6.7-13 9-3.5 2.4-10.8 7.5-16.3 11.4-5.5 3.9-19.2 12.9-30.5 20.1-28.1 17.9-42.1 27.4-43.3 29.3-1.2 1.9 1.1 9.2 13.8 44.5 9.4 26 10.7 29.8 15.4 45.4 7.5 24.5 15.6 48.3 16.9 49.6 1.5 1.5 4.7 1.6 41.2 1.4 38.6-.3 41.3-.3 64 .3 24.3.8 36 1 45.7.8l6.2-.1 3.1-8.3c1.8-4.5 7.1-19.7 11.7-33.7 8.4-25.1 11.2-32.8 23.3-64.5 7.2-18.8 11-29.8 11-31.8 0-2.4-4.4-5.6-36-26.6-16.2-10.8-38.5-26.2-49.5-34.2-21.2-15.4-34.6-24.8-38.1-26.7-1.8-1-3.3-.4-10.5 4.2zM123.8 168.8c-8 5.9-21.8 16.2-30.6 22.9-12.7 9.7-32.1 23.7-46.2 33.3-3.7 2.5-26.7 19.1-28.9 20.9l-2.5 1.9 2.2 9.8c2.5 11.6 2.6 12 4.8 19.3.9 3.1 1.8 6.3 1.9 7.1.2.8 2.9 10.3 6 21s6.3 22.6 7.1 26.5c.9 3.8 1.7 7.7 1.9 8.5.5 1.9 7.5 31 8 33 3.7 16.2 6.4 24 8.3 24.1.9.1 25.8.3 55.2.5 29.4.2 61.8.5 71.9.6l18.4.3 1.7-3c1.8-3.3 4.4-10.6 18.9-53 5.4-16 13.3-38 17.6-49 4.3-11 9.5-25.2 11.6-31.5l3.8-11.5-2.7-2.4c-4.6-4.1-30.1-24.2-43.2-34.1-6.9-5.2-12.7-9.7-13-10-.6-.7-22.4-19.1-32.6-27.6-18-14.9-22.5-18.3-23.9-18.4-.5 0-7.6 4.9-15.7 10.8zM554.9 162.6c-6.3 4.6-23.9 18.3-24.9 19.4-3.1 3.4-56.4 43.7-67.5 51-4.2 2.8-17.5 14-17.5 14.8 0 1.4 19 57.3 21 61.7 1.4 3.2 4.4 12.5 11 34 8.1 26.2 15.8 49.6 17 51.5.8 1.3 6.5 1.5 40 1.7 21.5.1 45.1.4 52.3.7 28.8 1.2 54.3 1.6 55.4.9.9-.7 6.3-16.7 7.8-23.3 2.3-10.2 15.7-58.7 19.9-72.1 10.5-33.3 13.2-42.8 14.2-49 .5-3.6.4-3.7-8.3-10.5-9.5-7.5-14.6-11.3-29.3-22.1-5.2-3.8-13.1-9.5-17.4-12.7-4.3-3.2-15.8-12.2-25.5-20-25.6-20.7-38.7-30.6-40.4-30.6-.8 0-4.3 2.1-7.8 4.6zM272.3 256.8c-1.1.7-4.8 9.5-7.3 17.2-7 21.2-23.3 67.7-28.9 82-9.5 24.5-14.2 38.2-13.7 39.6.7 1.8 8.2 7.2 38.6 27.4 15.1 10.1 35.6 24.3 45.6 31.5 24.1 17.6 39.9 28.5 41.4 28.5s22.1-13.7 45.7-30.4c10.6-7.5 19.5-13.6 19.8-13.6.2 0 3-1.8 6.2-3.9 8.8-5.9 23.3-15.1 23.9-15.1.3 0 1-.5 1.7-1 .7-.6 7.1-4.9 14.2-9.6 17.8-11.8 16.7-10.5 14.8-16.7-2.2-7.4-9.1-27.8-10.2-30.2-.5-1.1-1.9-4.9-3.1-8.5-1.2-3.6-2.8-7.9-3.5-9.5-1.8-4.1-6.9-19.4-15.8-48-8.3-26.4-12-37.1-13.1-38.2-.4-.5-24-.9-52.4-.9-28.5-.1-63.2-.4-77.2-.7-14.1-.3-26.1-.3-26.7.1zM200 413.7c-3 2-16.7 12-30.5 22.3-13.7 10.2-34.2 24.8-45.5 32.5-24.6 16.6-33.9 23.3-36.2 25.8-1.9 2.1-1.3 4.2 7.1 26.2 4.5 11.7 5 13 7.4 18.5 2.6 6 12.4 31.3 14.2 36.5 13.7 40 21 59.8 22.9 62.5 1.5 2-.5 1.9 53.1 2.4 25.9.3 52.6.7 59.5 1.1 18.2.9 39.8 1.2 40.9.6 1.4-.9 12.7-38.7 15.6-52.1 1.3-6.2 7.4-26.9 12.8-44 9-28.1 13.6-44.2 13-45.6-.5-1.5-22.4-17-48.3-34.5-15.5-10.5-28.3-19.7-58-41.8-7.3-5.5-20.5-14.1-21.5-14.1-.6 0-3.5 1.7-6.5 3.7zM477 418.6c-6.3 4.2-20.4 14-31.4 21.7-10.9 7.7-31.4 21.4-45.5 30.5-26.4 17-38 24.9-39.4 26.7-1.3 1.7 1.7 14.5 9.5 41 1.6 5.5 3.8 13.1 4.9 17 1.1 3.8 2.2 7.7 2.4 8.5.6 1.8 6.3 25.6 6.9 28.5.2 1.1.9 4 1.6 6.5.7 2.5 1.3 5.2 1.5 6 .9 4.6 6.8 27.2 8.1 31.3 1.2 3.6 2.1 4.7 3.7 4.8 1.2.1 27.4.3 58.2.5 30.8.2 63.7.5 73 .7 9.4.2 17.8.1 18.8-.1.9-.2 2.6-2.5 3.8-5.1 2.3-5.2 21.2-54.2 22.4-58.1.4-1.4 5.8-14.4 12-29 13.4-31.4 19.2-45.7 19.6-48.7.5-2.7-3.3-6.1-21.6-19.2-3.8-2.8-7.8-5.6-8.7-6.3-.9-.7-4.2-3.1-7.3-5.3-14.3-10.1-26.2-19.1-40.1-30.1-26.2-21-37.7-29.4-40.1-29.4-.5 0-6 3.4-12.3 7.6z"/></svg>