<?xml version="1.0" encoding="UTF-8" standalone="no"?>
<!-- Created with Inkscape (http://www.inkscape.org/) -->

<svg
   xmlns:dc="http://purl.org/dc/elements/1.1/"
   xmlns:cc="http://creativecommons.org/ns#"
   xmlns:rdf="http://www.w3.org/1999/02/22-rdf-syntax-ns#"
   xmlns:svg="http://www.w3.org/2000/svg"
   xmlns="http://www.w3.org/2000/svg"
   xmlns:sodipodi="http://sodipodi.sourceforge.net/DTD/sodipodi-0.dtd"
   xmlns:inkscape="http://www.inkscape.org/namespaces/inkscape"
   width="210mm"
   height="210mm"
   viewBox="0 0 744.09449 744.09448"
   id="svg2"
   version="1.1"
   inkscape:version="0.91 r13725"
   sodipodi:docname="logo.svg">
  <defs
     id="defs4" />
  <sodipodi:namedview
     id="base"
     pagecolor="#ffffff"
     bordercolor="#666666"
     borderopacity="1.0"
     inkscape:pageopacity="0.0"
     inkscape:pageshadow="2"
     inkscape:zoom="0.47242383"
     inkscape:cx="190.62798"
     inkscape:cy="387.09132"
     inkscape:document-units="px"
     inkscape:current-layer="layer1"
     showgrid="false"
     inkscape:window-width="1920"
     inkscape:window-height="1007"
     inkscape:window-x="0"
     inkscape:window-y="0"
     inkscape:window-maximized="1" />
  <metadata
     id="metadata7">
    <rdf:RDF>
      <cc:Work
         rdf:about="">
        <dc:format>image/svg+xml</dc:format>
        <dc:type
           rdf:resource="http://purl.org/dc/dcmitype/StillImage" />
        <dc:title></dc:title>
      </cc:Work>
    </rdf:RDF>
  </metadata>
  <g
     inkscape:label="Calque 1"
     inkscape:groupmode="layer"
     id="layer1"
     transform="translate(0,-308.26772)">
    <g
       id="g4169"
       transform="translate(-6.8498118,13.200068)">
      <path
         inkscape:export-ydpi="90"
         inkscape:export-xdpi="90"
         transform="matrix(-0.18818707,0.5507143,-0.58822893,-0.17618533,586.19903,369.7569)"
         inkscape:transform-center-y="-11.006562"
         inkscape:transform-center-x="-0.12014086"
         d="m 285.7143,466.64791 c -4.87517,-0.0668 -93.8024,-71.15041 -97.70724,-74.06999 -3.90484,-2.91957 -97.238752,-68.10943 -98.681746,-72.76663 -1.442995,-4.65719 38.681526,-111.19807 40.251546,-115.81399 1.57002,-4.61592 34.7275,-113.526523 38.71085,-116.338045 3.98334,-2.811521 117.70889,2.426222 122.58406,2.493005 4.87516,0.06678 118.70152,-2.053811 122.60636,0.865768 3.90484,2.919579 34.06658,112.697562 35.50957,117.354752 1.443,4.6572 38.63408,112.2572 37.06406,116.87312 -1.57002,4.61592 -96.6546,67.2247 -100.63794,70.03622 -3.98335,2.81152 -94.82436,71.43257 -99.69952,71.36579 z"
         inkscape:randomized="0"
         inkscape:rounded="0.039765481"
         inkscape:flatsided="false"
         sodipodi:arg2="2.2128126"
         sodipodi:arg1="1.5844941"
         sodipodi:r2="167.93997"
         sodipodi:r1="208.591"
         sodipodi:cy="258.07648"
         sodipodi:cx="288.57144"
         sodipodi:sides="5"
         id="path4136"
         style="fill:#2973ac;fill-opacity:1;stroke:none;stroke-width:10;stroke-linecap:butt;stroke-linejoin:bevel;stroke-miterlimit:4;stroke-dasharray:none;stroke-opacity:1;image-rendering:auto"
         sodipodi:type="star" />
      <path
         inkscape:export-ydpi="90"
         inkscape:export-xdpi="90"
         sodipodi:type="star"
         style="fill:#2973ac;fill-opacity:1;stroke:none;stroke-width:10;stroke-linecap:butt;stroke-linejoin:bevel;stroke-miterlimit:4;stroke-dasharray:none;stroke-opacity:1;image-rendering:auto"
         id="path4140"
         sodipodi:sides="5"
         sodipodi:cx="288.57144"
         sodipodi:cy="258.07648"
         sodipodi:r1="208.591"
         sodipodi:r2="167.93997"
         sodipodi:arg1="1.5844941"
         sodipodi:arg2="2.2128126"
         inkscape:flatsided="false"
         inkscape:rounded="0.039765481"
         inkscape:randomized="0"
         d="m 285.7143,466.64791 c -4.87517,-0.0668 -93.8024,-71.15041 -97.70724,-74.06999 -3.90484,-2.91957 -97.238752,-68.10943 -98.681746,-72.76663 -1.442995,-4.65719 38.681526,-111.19807 40.251546,-115.81399 1.57002,-4.61592 34.7275,-113.526523 38.71085,-116.338045 3.98334,-2.811521 117.70889,2.426222 122.58406,2.493005 4.87516,0.06678 118.70152,-2.053811 122.60636,0.865768 3.90484,2.919579 34.06658,112.697562 35.50957,117.354752 1.443,4.6572 38.63408,112.2572 37.06406,116.87312 -1.57002,4.61592 -96.6546,67.2247 -100.63794,70.03622 -3.98335,2.81152 -94.82436,71.43257 -99.69952,71.36579 z"
         inkscape:transform-center-x="125.73439"
         inkscape:transform-center-y="-3.0716212"
         transform="matrix(-0.58197929,-8.4647799e-4,-0.02259507,-0.61363181,761.11974,789.57314)" />
      <path
         inkscape:export-ydpi="90"
         inkscape:export-xdpi="90"
         sodipodi:type="star"
         style="fill:#2973ac;fill-opacity:1;stroke:none;stroke-width:10;stroke-linecap:butt;stroke-linejoin:bevel;stroke-miterlimit:4;stroke-dasharray:none;stroke-opacity:1;image-rendering:auto"
         id="path4142"
         sodipodi:sides="5"
         sodipodi:cx="288.57144"
         sodipodi:cy="258.07648"
         sodipodi:r1="208.591"
         sodipodi:r2="167.93997"
         sodipodi:arg1="1.5844941"
         sodipodi:arg2="2.2128126"
         inkscape:flatsided="false"
         inkscape:rounded="0.039765481"
         inkscape:randomized="0"
         d="m 285.7143,466.64791 c -4.87517,-0.0668 -93.8024,-71.15041 -97.70724,-74.06999 -3.90484,-2.91957 -97.238752,-68.10943 -98.681746,-72.76663 -1.442995,-4.65719 38.681526,-111.19807 40.251546,-115.81399 1.57002,-4.61592 34.7275,-113.526523 38.71085,-116.338045 3.98334,-2.811521 117.70889,2.426222 122.58406,2.493005 4.87516,0.06678 118.70152,-2.053811 122.60636,0.865768 3.90484,2.919579 34.06658,112.697562 35.50957,117.354752 1.443,4.6572 38.63408,112.2572 37.06406,116.87312 -1.57002,4.61592 -96.6546,67.2247 -100.63794,70.03622 -3.98335,2.81152 -94.82436,71.43257 -99.69952,71.36579 z"
         inkscape:transform-center-x="-1.7479808"
         inkscape:transform-center-y="-11.366364"
         transform="matrix(0.4582634,0.35874122,-0.35973667,0.49763849,130.00686,399.36944)" />
      <path
         inkscape:export-ydpi="90"
         inkscape:export-xdpi="90"
         transform="matrix(0.46874727,-0.34492984,0.38258726,0.48029317,11.687203,845.6052)"
         inkscape:transform-center-y="-10.656981"
         inkscape:transform-center-x="1.4918326"
         d="m 285.7143,466.64791 c -4.87517,-0.0668 -93.8024,-71.15041 -97.70724,-74.06999 -3.90484,-2.91957 -97.238752,-68.10943 -98.681746,-72.76663 -1.442995,-4.65719 38.681526,-111.19807 40.251546,-115.81399 1.57002,-4.61592 34.7275,-113.526523 38.71085,-116.338045 3.98334,-2.811521 117.70889,2.426222 122.58406,2.493005 4.87516,0.06678 118.70152,-2.053811 122.60636,0.865768 3.90484,2.919579 34.06658,112.697562 35.50957,117.354752 1.443,4.6572 38.63408,112.2572 37.06406,116.87312 -1.57002,4.61592 -96.6546,67.2247 -100.63794,70.03622 -3.98335,2.81152 -94.82436,71.43257 -99.69952,71.36579 z"
         inkscape:randomized="0"
         inkscape:rounded="0.039765481"
         inkscape:flatsided="false"
         sodipodi:arg2="2.2128126"
         sodipodi:arg1="1.5844941"
         sodipodi:r2="167.93997"
         sodipodi:r1="208.591"
         sodipodi:cy="258.07648"
         sodipodi:cx="288.57144"
         sodipodi:sides="5"
         id="path4144"
         style="fill:#2973ac;fill-opacity:1;stroke:none;stroke-width:10;stroke-linecap:butt;stroke-linejoin:bevel;stroke-miterlimit:4;stroke-dasharray:none;stroke-opacity:1;image-rendering:auto"
         sodipodi:type="star" />
      <path
         inkscape:export-ydpi="90"
         inkscape:export-xdpi="90"
         sodipodi:type="star"
         style="fill:#333333;fill-opacity:1;stroke:none;stroke-width:10;stroke-linecap:butt;stroke-linejoin:bevel;stroke-miterlimit:4;stroke-dasharray:none;stroke-opacity:1;image-rendering:auto"
         id="path4146"
         sodipodi:sides="5"
         sodipodi:cx="288.57144"
         sodipodi:cy="258.07648"
         sodipodi:r1="208.591"
         sodipodi:r2="167.93997"
         sodipodi:arg1="1.5844941"
         sodipodi:arg2="2.2128126"
         inkscape:flatsided="false"
         inkscape:rounded="0.039765481"
         inkscape:randomized="0"
         d="m 285.7143,466.64791 c -4.87517,-0.0668 -93.8024,-71.15041 -97.70724,-74.06999 -3.90484,-2.91957 -97.238752,-68.10943 -98.681746,-72.76663 -1.442995,-4.65719 38.681526,-111.19807 40.251546,-115.81399 1.57002,-4.61592 34.7275,-113.526523 38.71085,-116.338045 3.98334,-2.811521 117.70889,2.426222 122.58406,2.493005 4.87516,0.06678 118.70152,-2.053811 122.60636,0.865768 3.90484,2.919579 34.06658,112.697562 35.50957,117.354752 1.443,4.6572 38.63408,112.2572 37.06406,116.87312 -1.57002,4.61592 -96.6546,67.2247 -100.63794,70.03622 -3.98335,2.81152 -94.82436,71.43257 -99.69952,71.36579 z"
         inkscape:transform-center-x="0.12014494"
         inkscape:transform-center-y="11.006559"
         transform="matrix(0.18818707,-0.5507143,0.58822893,0.17618533,172.00687,810.48035)" />
      <path
         inkscape:export-ydpi="90"
         inkscape:export-xdpi="90"
         sodipodi:type="star"
         style="fill:#2973ac;fill-opacity:1;stroke:none;stroke-width:10;stroke-linecap:butt;stroke-linejoin:bevel;stroke-miterlimit:4;stroke-dasharray:none;stroke-opacity:1;image-rendering:auto"
         id="path4148"
         sodipodi:sides="5"
         sodipodi:cx="288.57144"
         sodipodi:cy="258.07648"
         sodipodi:r1="208.591"
         sodipodi:r2="167.93997"
         sodipodi:arg1="1.5844941"
         sodipodi:arg2="2.2128126"
         inkscape:flatsided="false"
         inkscape:rounded="0.039765481"
         inkscape:randomized="0"
         d="m 285.7143,466.64791 c -4.87517,-0.0668 -93.8024,-71.15041 -97.70724,-74.06999 -3.90484,-2.91957 -97.238752,-68.10943 -98.681746,-72.76663 -1.442995,-4.65719 38.681526,-111.19807 40.251546,-115.81399 1.57002,-4.61592 34.7275,-113.526523 38.71085,-116.338045 3.98334,-2.811521 117.70889,2.426222 122.58406,2.493005 4.87516,0.06678 118.70152,-2.053811 122.60636,0.865768 3.90484,2.919579 34.06658,112.697562 35.50957,117.354752 1.443,4.6572 38.63408,112.2572 37.06406,116.87312 -1.57002,4.61592 -96.6546,67.2247 -100.63794,70.03622 -3.98335,2.81152 -94.82436,71.43257 -99.69952,71.36579 z"
         inkscape:transform-center-x="-2.851868"
         inkscape:transform-center-y="-11.348989"
         transform="matrix(-0.15592329,-0.56070361,0.58487332,-0.18702334,399.61474,1080.9542)" />
    </g>
  </g>
</svg>
