<?xml version="1.0" encoding="UTF-8" standalone="no"?>
<!-- Created with Inkscape (http://www.inkscape.org/) -->

<svg
   xmlns:dc="http://purl.org/dc/elements/1.1/"
   xmlns:cc="http://creativecommons.org/ns#"
   xmlns:rdf="http://www.w3.org/1999/02/22-rdf-syntax-ns#"
   xmlns:svg="http://www.w3.org/2000/svg"
   xmlns="http://www.w3.org/2000/svg"
   xmlns:sodipodi="http://sodipodi.sourceforge.net/DTD/sodipodi-0.dtd"
   xmlns:inkscape="http://www.inkscape.org/namespaces/inkscape"
   width="2208"
   height="2208"
   viewBox="0 0 2208 2208"
   id="svg2"
   version="1.1"
   inkscape:version="0.91 r13725"
   sodipodi:docname="logo.svg"
   inkscape:export-filename="/home/mathieu/Projets/current/internetcollaboratif.info/t6/docs/logo-2208x2208.png"
   inkscape:export-xdpi="90"
   inkscape:export-ydpi="90">
  <defs
     id="defs4">
    <marker
       inkscape:stockid="Arrow1Lstart"
       orient="auto"
       refY="0.0"
       refX="0.0"
       id="Arrow1Lstart"
       style="overflow:visible"
       inkscape:isstock="true">
      <path
         id="path4151"
         d="M 0.0,0.0 L 5.0,-5.0 L -12.5,0.0 L 5.0,5.0 L 0.0,0.0 z "
         style="fill-rule:evenodd;stroke:#ff0000;stroke-width:1pt;stroke-opacity:1;fill:#795548;fill-opacity:1"
         transform="scale(0.8) translate(12.5,0)" />
    </marker>
  </defs>
  <sodipodi:namedview
     id="base"
     pagecolor="#ffffff"
     bordercolor="#666666"
     borderopacity="1.0"
     inkscape:pageopacity="0.0"
     inkscape:pageshadow="2"
     inkscape:zoom="0.11810596"
     inkscape:cx="513.97753"
     inkscape:cy="995.55587"
     inkscape:document-units="px"
     inkscape:current-layer="layer1"
     showgrid="false"
     inkscape:window-width="1918"
     inkscape:window-height="1006"
     inkscape:window-x="0"
     inkscape:window-y="0"
     inkscape:window-maximized="0"
     units="px" />
  <metadata
     id="metadata7">
    <rdf:RDF>
      <cc:Work
         rdf:about="">
        <dc:format>image/svg+xml</dc:format>
        <dc:type
           rdf:resource="http://purl.org/dc/dcmitype/StillImage" />
        <dc:title></dc:title>
      </cc:Work>
    </rdf:RDF>
  </metadata>
  <g
     inkscape:groupmode="layer"
     id="layer2"
     inkscape:label="Background"
     style="display:none"
     transform="translate(0,1588)">
    <g
       id="g4162"
       transform="translate(-683.70813,-345.56221)">
      <rect
         y="449.06216"
         x="683.70813"
         height="103.3"
         width="620"
         id="rect4148"
         style="fill:#ff6600;fill-opacity:1;stroke:none;stroke-width:10;stroke-linecap:butt;stroke-linejoin:bevel;stroke-miterlimit:4;stroke-dasharray:none;stroke-opacity:1" />
      <rect
         style="fill:#ff0000;fill-opacity:1;stroke:none;stroke-width:10;stroke-linecap:butt;stroke-linejoin:bevel;stroke-miterlimit:4;stroke-dasharray:none;stroke-opacity:1"
         id="rect4152"
         width="620"
         height="103.3"
         x="683.70813"
         y="345.76218" />
      <rect
         style="fill:#ffcc00;fill-opacity:1;stroke:none;stroke-width:10;stroke-linecap:butt;stroke-linejoin:bevel;stroke-miterlimit:4;stroke-dasharray:none;stroke-opacity:1"
         id="rect4154"
         width="620"
         height="103.3"
         x="683.70813"
         y="552.36218" />
      <rect
         y="655.66217"
         x="683.70813"
         height="103.3"
         width="620"
         id="rect4156"
         style="fill:#008000;fill-opacity:1;stroke:none;stroke-width:10;stroke-linecap:butt;stroke-linejoin:bevel;stroke-miterlimit:4;stroke-dasharray:none;stroke-opacity:1" />
      <rect
         style="fill:#0000ff;fill-opacity:1;stroke:none;stroke-width:10;stroke-linecap:butt;stroke-linejoin:bevel;stroke-miterlimit:4;stroke-dasharray:none;stroke-opacity:1"
         id="rect4158"
         width="620"
         height="103.3"
         x="683.70813"
         y="758.96216" />
      <rect
         y="862.26221"
         x="683.70813"
         height="103.3"
         width="620"
         id="rect4160"
         style="fill:#800080;fill-opacity:1;stroke:none;stroke-width:10;stroke-linecap:butt;stroke-linejoin:bevel;stroke-miterlimit:4;stroke-dasharray:none;stroke-opacity:1" />
    </g>
  </g>
  <g
     inkscape:label="t6 logo"
     inkscape:groupmode="layer"
     id="layer1"
     transform="translate(0,1155.6378)"
     style="display:inline">
    <path
       sodipodi:type="star"
       style="fill:#795548;fill-opacity:1;stroke:none;stroke-width:10;stroke-linecap:butt;stroke-linejoin:bevel;stroke-miterlimit:4;stroke-dasharray:none;stroke-opacity:1;image-rendering:auto"
       id="path4136"
       sodipodi:sides="5"
       sodipodi:cx="288.57144"
       sodipodi:cy="258.07648"
       sodipodi:r1="208.591"
       sodipodi:r2="167.93997"
       sodipodi:arg1="1.5844941"
       sodipodi:arg2="2.2128126"
       inkscape:flatsided="false"
       inkscape:rounded="0.039765481"
       inkscape:randomized="0"
       d="m 285.7143,466.64791 c -4.87517,-0.0668 -93.8024,-71.15041 -97.70724,-74.06999 -3.90484,-2.91957 -97.238752,-68.10943 -98.681746,-72.76663 -1.442995,-4.65719 38.681526,-111.19807 40.251546,-115.81399 1.57002,-4.61592 34.7275,-113.526523 38.71085,-116.338045 3.98334,-2.811521 117.70889,2.426222 122.58406,2.493005 4.87516,0.06678 118.70152,-2.053811 122.60636,0.865768 3.90484,2.919579 34.06658,112.697562 35.50957,117.354752 1.443,4.6572 38.63408,112.2572 37.06406,116.87312 -1.57002,4.61592 -96.6546,67.2247 -100.63794,70.03622 -3.98335,2.81152 -94.82436,71.43257 -99.69952,71.36579 z"
       inkscape:transform-center-x="-0.44450201"
       inkscape:transform-center-y="-40.722809"
       transform="matrix(-0.63818754,1.8676044,-1.9948255,-0.59748676,1812.4286,-1039.6108)"
       inkscape:export-xdpi="90"
       inkscape:export-ydpi="90" />
    <path
       transform="matrix(-1.9736315,-0.00287061,-0.07662529,-2.0809728,2405.6267,384.08687)"
       inkscape:transform-center-y="-11.364581"
       inkscape:transform-center-x="465.2004"
       d="m 285.7143,466.64791 c -4.87517,-0.0668 -93.8024,-71.15041 -97.70724,-74.06999 -3.90484,-2.91957 -97.238752,-68.10943 -98.681746,-72.76663 -1.442995,-4.65719 38.681526,-111.19807 40.251546,-115.81399 1.57002,-4.61592 34.7275,-113.526523 38.71085,-116.338045 3.98334,-2.811521 117.70889,2.426222 122.58406,2.493005 4.87516,0.06678 118.70152,-2.053811 122.60636,0.865768 3.90484,2.919579 34.06658,112.697562 35.50957,117.354752 1.443,4.6572 38.63408,112.2572 37.06406,116.87312 -1.57002,4.61592 -96.6546,67.2247 -100.63794,70.03622 -3.98335,2.81152 -94.82436,71.43257 -99.69952,71.36579 z"
       inkscape:randomized="0"
       inkscape:rounded="0.039765481"
       inkscape:flatsided="false"
       sodipodi:arg2="2.2128126"
       sodipodi:arg1="1.5844941"
       sodipodi:r2="167.93997"
       sodipodi:r1="208.591"
       sodipodi:cy="258.07648"
       sodipodi:cx="288.57144"
       sodipodi:sides="5"
       id="path4140"
       style="fill:#795548;fill-opacity:1;stroke:none;stroke-width:10;stroke-linecap:butt;stroke-linejoin:bevel;stroke-miterlimit:4;stroke-dasharray:none;stroke-opacity:1;image-rendering:auto"
       sodipodi:type="star"
       inkscape:export-xdpi="90"
       inkscape:export-ydpi="90" />
    <path
       transform="matrix(1.5540812,1.2165776,-1.2199534,1.6876116,265.37143,-939.18756)"
       inkscape:transform-center-y="-42.054028"
       inkscape:transform-center-x="-6.4672953"
       d="m 285.7143,466.64791 c -4.87517,-0.0668 -93.8024,-71.15041 -97.70724,-74.06999 -3.90484,-2.91957 -97.238752,-68.10943 -98.681746,-72.76663 -1.442995,-4.65719 38.681526,-111.19807 40.251546,-115.81399 1.57002,-4.61592 34.7275,-113.526523 38.71085,-116.338045 3.98334,-2.811521 117.70889,2.426222 122.58406,2.493005 4.87516,0.06678 118.70152,-2.053811 122.60636,0.865768 3.90484,2.919579 34.06658,112.697562 35.50957,117.354752 1.443,4.6572 38.63408,112.2572 37.06406,116.87312 -1.57002,4.61592 -96.6546,67.2247 -100.63794,70.03622 -3.98335,2.81152 -94.82436,71.43257 -99.69952,71.36579 z"
       inkscape:randomized="0"
       inkscape:rounded="0.039765481"
       inkscape:flatsided="false"
       sodipodi:arg2="2.2128126"
       sodipodi:arg1="1.5844941"
       sodipodi:r2="167.93997"
       sodipodi:r1="208.591"
       sodipodi:cy="258.07648"
       sodipodi:cx="288.57144"
       sodipodi:sides="5"
       id="path4142"
       style="fill:#795548;fill-opacity:1;stroke:none;stroke-width:10;stroke-linecap:butt;stroke-linejoin:bevel;stroke-miterlimit:4;stroke-dasharray:none;stroke-opacity:1;image-rendering:auto"
       sodipodi:type="star"
       inkscape:export-xdpi="90"
       inkscape:export-ydpi="90" />
    <path
       sodipodi:type="star"
       style="fill:#795548;fill-opacity:1;stroke:none;stroke-width:10;stroke-linecap:butt;stroke-linejoin:bevel;stroke-miterlimit:4;stroke-dasharray:none;stroke-opacity:1;image-rendering:auto"
       id="path4144"
       sodipodi:sides="5"
       sodipodi:cx="288.57144"
       sodipodi:cy="258.07648"
       sodipodi:r1="208.591"
       sodipodi:r2="167.93997"
       sodipodi:arg1="1.5844941"
       sodipodi:arg2="2.2128126"
       inkscape:flatsided="false"
       inkscape:rounded="0.039765481"
       inkscape:randomized="0"
       d="m 285.7143,466.64791 c -4.87517,-0.0668 -93.8024,-71.15041 -97.70724,-74.06999 -3.90484,-2.91957 -97.238752,-68.10943 -98.681746,-72.76663 -1.442995,-4.65719 38.681526,-111.19807 40.251546,-115.81399 1.57002,-4.61592 34.7275,-113.526523 38.71085,-116.338045 3.98334,-2.811521 117.70889,2.426222 122.58406,2.493005 4.87516,0.06678 118.70152,-2.053811 122.60636,0.865768 3.90484,2.919579 34.06658,112.697562 35.50957,117.354752 1.443,4.6572 38.63408,112.2572 37.06406,116.87312 -1.57002,4.61592 -96.6546,67.2247 -100.63794,70.03622 -3.98335,2.81152 -94.82436,71.43257 -99.69952,71.36579 z"
       inkscape:transform-center-x="5.5195838"
       inkscape:transform-center-y="-39.429383"
       transform="matrix(1.5896345,-1.1697399,1.2974453,1.6287895,-135.87894,574.10505)"
       inkscape:export-xdpi="90"
       inkscape:export-ydpi="90" />
    <path
       transform="matrix(0.63818754,-1.8676044,1.9948255,0.59748676,407.80354,454.98824)"
       inkscape:transform-center-y="40.722786"
       inkscape:transform-center-x="0.44452984"
       d="m 285.7143,466.64791 c -4.87517,-0.0668 -93.8024,-71.15041 -97.70724,-74.06999 -3.90484,-2.91957 -97.238752,-68.10943 -98.681746,-72.76663 -1.442995,-4.65719 38.681526,-111.19807 40.251546,-115.81399 1.57002,-4.61592 34.7275,-113.526523 38.71085,-116.338045 3.98334,-2.811521 117.70889,2.426222 122.58406,2.493005 4.87516,0.06678 118.70152,-2.053811 122.60636,0.865768 3.90484,2.919579 34.06658,112.697562 35.50957,117.354752 1.443,4.6572 38.63408,112.2572 37.06406,116.87312 -1.57002,4.61592 -96.6546,67.2247 -100.63794,70.03622 -3.98335,2.81152 -94.82436,71.43257 -99.69952,71.36579 z"
       inkscape:randomized="0"
       inkscape:rounded="0.039765481"
       inkscape:flatsided="false"
       sodipodi:arg2="2.2128126"
       sodipodi:arg1="1.5844941"
       sodipodi:r2="167.93997"
       sodipodi:r1="208.591"
       sodipodi:cy="258.07648"
       sodipodi:cx="288.57144"
       sodipodi:sides="5"
       id="path4146"
       style="fill:#795548;fill-opacity:1;stroke:none;stroke-width:49.34525473;stroke-linecap:square;stroke-linejoin:miter;stroke-miterlimit:0;stroke-dasharray:none;stroke-opacity:1;image-rendering:auto;stroke-dashoffset:0"
       sodipodi:type="star"
       inkscape:export-xdpi="90"
       inkscape:export-ydpi="90" />
    <path
       transform="matrix(-0.5287733,-1.9014806,1.9834459,-0.63424104,1179.6765,1372.2299)"
       inkscape:transform-center-y="-41.989711"
       inkscape:transform-center-x="-10.551564"
       d="m 285.7143,466.64791 c -4.87517,-0.0668 -93.8024,-71.15041 -97.70724,-74.06999 -3.90484,-2.91957 -97.238752,-68.10943 -98.681746,-72.76663 -1.442995,-4.65719 38.681526,-111.19807 40.251546,-115.81399 1.57002,-4.61592 34.7275,-113.526523 38.71085,-116.338045 3.98334,-2.811521 117.70889,2.426222 122.58406,2.493005 4.87516,0.06678 118.70152,-2.053811 122.60636,0.865768 3.90484,2.919579 34.06658,112.697562 35.50957,117.354752 1.443,4.6572 38.63408,112.2572 37.06406,116.87312 -1.57002,4.61592 -96.6546,67.2247 -100.63794,70.03622 -3.98335,2.81152 -94.82436,71.43257 -99.69952,71.36579 z"
       inkscape:randomized="0"
       inkscape:rounded="0.039765481"
       inkscape:flatsided="false"
       sodipodi:arg2="2.2128126"
       sodipodi:arg1="1.5844941"
       sodipodi:r2="167.93997"
       sodipodi:r1="208.591"
       sodipodi:cy="258.07648"
       sodipodi:cx="288.57144"
       sodipodi:sides="5"
       id="path4148"
       style="fill:#795548;fill-opacity:1;stroke:none;stroke-width:10;stroke-linecap:butt;stroke-linejoin:bevel;stroke-miterlimit:4;stroke-dasharray:none;stroke-opacity:1;image-rendering:auto"
       sodipodi:type="star"
       inkscape:export-xdpi="90"
       inkscape:export-ydpi="90" />
  </g>
</svg>
